<svg width="22" height="19" viewBox="0 0 22 19" fill="none" xmlns="http://www.w3.org/2000/svg">
<path d="M21 1.51001C20 2.00001 19.02 2.19901 18 2.50001C16.879 1.23501 15.217 1.16501 13.62 1.76301C12.023 2.36101 10.977 3.82301 11 5.50001V6.50001C7.755 6.58301 4.865 5.10501 3 2.50001C3 2.50001 -1.182 9.93301 7 13.5C5.128 14.747 3.261 15.588 1 15.5C4.308 17.303 7.913 17.923 11.034 17.017C14.614 15.977 17.556 13.294 18.685 9.27501C19.0218 8.05268 19.189 6.78987 19.182 5.52201C19.18 5.27301 20.692 2.75001 21 1.50901V1.51001Z" stroke="white" stroke-width="1.5" stroke-linecap="round" stroke-linejoin="round"/>
</svg>
